<?xml version="1.0" standalone="no"?>
<!DOCTYPE svg PUBLIC "-//W3C//DTD SVG 20010904//EN"
 "http://www.w3.org/TR/2001/REC-SVG-20010904/DTD/svg10.dtd">
<svg version="1.0" xmlns="http://www.w3.org/2000/svg"
 width="225.000000pt" height="225.000000pt" viewBox="0 0 225.000000 225.000000"
 preserveAspectRatio="xMidYMid meet">

<g transform="translate(0.000000,225.000000) scale(0.100000,-0.100000)"
fill="#000000" stroke="none">
<path d="M946 2015 c-387 -80 -675 -349 -778 -725 -20 -74 -23 -107 -22 -255
1 -155 3 -178 28 -260 120 -400 442 -671 847 -715 619 -67 1146 451 1088 1069
-26 284 -163 532 -389 703 -87 66 -245 142 -350 169 -111 27 -325 35 -424 14z
m-244 -457 c4 -263 9 -289 63 -338 20 -19 37 -25 74 -25 59 0 94 22 123 78 22
40 23 55 26 285 l4 242 35 0 35 0 -4 -247 c-4 -277 -10 -304 -79 -371 -84 -82
-255 -77 -336 10 -53 56 -57 85 -61 356 l-4 252 60 0 60 0 4 -242z m741 21
l167 -221 0 221 0 221 35 0 35 0 0 -331 0 -330 -39 3 c-38 3 -42 8 -207 228
l-169 225 -3 -227 -2 -228 -35 0 -35 0 0 330 0 330 43 0 42 -1 168 -220z
m-737 -581 c-4 -34 -4 -165 0 -291 l7 -229 113 4 114 3 0 -42 0 -43 -180 0
-180 0 0 330 0 330 66 0 67 0 -7 -62z m629 -151 c66 -37 75 -67 75 -245 0
-145 1 -154 20 -159 28 -7 25 -32 -6 -43 -52 -20 -99 -12 -133 22 -17 17 -31
26 -31 20 0 -23 -63 -52 -113 -52 -91 0 -137 42 -137 127 0 76 23 99 145 138
54 17 103 39 109 48 17 26 -5 70 -46 91 -31 17 -41 18 -75 8 -21 -6 -49 -21
-62 -33 -26 -24 -27 -24 -36 12 -5 22 -1 30 22 46 44 31 82 41 158 42 55 1 79
-4 110 -22z m225 -407 c23 -44 -29 -80 -64 -44 -19 18 -19 20 -6 45 14 25 56
25 70 -1z m-337 -105 c126 -6 148 -10 264 -49 70 -23 129 -48 131 -54 6 -18
-10 -15 -168 23 -141 35 -148 36 -277 29 l-132 -7 -11 27 c-16 42 -13 47 23
42 17 -3 94 -8 170 -11z"/>
<path d="M1211 624 c-47 -20 -60 -41 -61 -96 0 -66 32 -94 80 -68 24 13 40 62
40 126 0 60 -4 62 -59 38z"/>
</g>
</svg>
